<svg xmlns="http://www.w3.org/2000/svg" xmlns:xlink="http://www.w3.org/1999/xlink" viewBox="0 0 18 18"><g><defs><path d="M 16.817 6.839 C 16.674 6.397 16.278 6.084 15.815 6.047 L 11.666 5.712 L 10.065 1.839 C 9.887 1.407 9.467 1.125 9 1.125 C 8.534 1.125 8.113 1.407 7.936 1.839 L 6.336 5.711 L 2.185 6.047 C 1.721 6.086 1.326 6.4 1.182 6.843 C 1.038 7.286 1.174 7.772 1.526 8.076 L 4.691 10.806 L 3.727 14.889 C 3.616 15.342 3.791 15.818 4.168 16.092 C 4.546 16.367 5.052 16.386 5.449 16.142 L 9 13.956 L 12.553 16.142 C 12.951 16.383 13.454 16.362 13.831 16.088 C 14.207 15.814 14.381 15.341 14.273 14.889 L 13.306 10.806 L 16.47 8.075 C 16.825 7.771 16.963 7.283 16.817 6.839 Z" id="a1020z"></path><filter id="a1022z" filterUnits="objectBoundingBox" x="-53.5%" y="-68.6%" width="206.9%" height="237.2%"><feOffset dx="0" dy="2" in="SourceAlpha" result="a1027z"></feOffset><feGaussianBlur stdDeviation="2.005" in="a1027z" result="a1028z"></feGaussianBlur><feFlood flood-color="rgba(0,0,0,0.25)" result="a1029z"></feFlood><feComposite in="a1029z" in2="a1028z" operator="in" result="a1023z"></feComposite></filter><filter id="a1025z" x="-3.1%" y="-3.2%" width="105.6%" height="105.8%" filterUnits="objectBoundingBox"><feGaussianBlur stdDeviation="0" in="SourceAlpha" result="a1030z"></feGaussianBlur><feOffset dx="0.49" dy="0.49" in="a1030z" result="a1031z"></feOffset><feComposite in="a1031z" in2="SourceAlpha" operator="arithmetic" k2="-1" k3="1" result="a1032z"></feComposite><feFlood flood-color="rgba(255, 255, 255, 0.25)" result="a1033z"></feFlood><feComposite in="a1033z" in2="a1032z" operator="in" result="a1026z"></feComposite></filter></defs><mask id="a1024z" x="-53.5%" y="-68.6%" width="206.9%" height="237.2%"><rect x="-53.5%" y="-68.6%" width="206.9%" height="237.2%" fill="white"></rect><use href="#a1020z" fill="black"></use></mask><g filter="url(#a1022z)" mask="url(#a1024z)"><use fill="black" stroke="black" stroke-opacity="0" stroke-width="0" xlink:href="#a1020z" clip-path="url(#a1021z)"></use></g><use xlink:href="#a1020z" fill="rgb(0, 153, 255)" clip-path="url(#a1021z)"></use><use fill="black" fill-opacity="1" filter="url(#a1025z)" xlink:href="#a1020z"></use></g></svg>