<svg xmlns="http://www.w3.org/2000/svg" xmlns:xlink="http://www.w3.org/1999/xlink" viewBox="0 0 18 18"><path d="M 16.943 6.964 C 16.799 6.522 16.404 6.209 15.94 6.172 L 11.792 5.837 L 10.19 1.964 C 10.013 1.532 9.592 1.25 9.126 1.25 C 8.659 1.25 8.239 1.532 8.062 1.964 L 6.461 5.837 L 2.311 6.172 C 1.847 6.211 1.451 6.525 1.308 6.968 C 1.164 7.411 1.299 7.897 1.652 8.201 L 4.816 10.931 L 3.852 15.014 C 3.742 15.467 3.916 15.943 4.294 16.217 C 4.671 16.492 5.177 16.511 5.575 16.267 L 9.125 14.081 L 12.678 16.267 C 13.076 16.508 13.58 16.487 13.956 16.213 C 14.332 15.94 14.507 15.466 14.399 15.014 L 13.431 10.931 L 16.595 8.2 C 16.951 7.897 17.088 7.408 16.943 6.964 Z" fill="rgb(51, 51, 51)"></path><g><defs><path d="M 9 1.125 C 9 1.125 8.113 1.407 7.936 1.839 L 6.336 5.711 L 2.185 6.047 C 1.721 6.086 1.326 6.4 1.182 6.843 C 1.038 7.286 1.174 7.772 1.526 8.076 L 4.691 10.806 L 3.727 14.889 C 3.616 15.342 3.791 15.818 4.168 16.092 C 4.546 16.367 5.052 16.386 5.449 16.142 L 9 14 Z" id="a1036z"></path><filter id="a1038z" filterUnits="objectBoundingBox" x="-106.9%" y="-68.6%" width="313.9%" height="237.2%"><feOffset dx="0" dy="2" in="SourceAlpha" result="a1043z"></feOffset><feGaussianBlur stdDeviation="2.005" in="a1043z" result="a1044z"></feGaussianBlur><feFlood flood-color="rgba(0,0,0,0.25)" result="a1045z"></feFlood><feComposite in="a1045z" in2="a1044z" operator="in" result="a1039z"></feComposite></filter><filter id="a1041z" x="-6.1%" y="-3.2%" width="111.0%" height="105.8%" filterUnits="objectBoundingBox"><feGaussianBlur stdDeviation="0" in="SourceAlpha" result="a1046z"></feGaussianBlur><feOffset dx="0.49" dy="0.49" in="a1046z" result="a1047z"></feOffset><feComposite in="a1047z" in2="SourceAlpha" operator="arithmetic" k2="-1" k3="1" result="a1048z"></feComposite><feFlood flood-color="rgba(255, 255, 255, 0.25)" result="a1049z"></feFlood><feComposite in="a1049z" in2="a1048z" operator="in" result="a1042z"></feComposite></filter></defs><mask id="a1040z" x="-106.9%" y="-68.6%" width="313.9%" height="237.2%"><rect x="-106.9%" y="-68.6%" width="313.9%" height="237.2%" fill="white"></rect><use href="#a1036z" fill="black"></use></mask><g filter="url(#a1038z)" mask="url(#a1040z)"><use fill="black" stroke="black" stroke-opacity="0" stroke-width="0" xlink:href="#a1036z" clip-path="url(#a1037z)"></use></g><use xlink:href="#a1036z" fill="rgb(0, 153, 255)" clip-path="url(#a1037z)"></use><use fill="black" fill-opacity="1" filter="url(#a1041z)" xlink:href="#a1036z"></use></g></svg>