<?xml version="1.0" encoding="UTF-8"?>
<svg id="Layer_1" data-name="Layer 1" xmlns="http://www.w3.org/2000/svg" viewBox="0 0 76 30">
  <defs>
    <style>
      .cls-1 {
        fill: #fff;
        fill-rule: evenodd;
        stroke-width: 0px;
      }
    </style>
  </defs>
  <path class="cls-1" d="m74.78,15.88c.16-.19.44-.18.59.02h0l.56.76c.11.15.1.35,0,.49-.96,1.25-2.65,2.45-4.69,2.57-1.61.09-2.93-.52-3.66-1.67-.14-.23-.46-.24-.62-.03-.86,1.15-1.89,2.05-2.97,2.11-1.92.11-2.47-1.18-1.99-4.02.05-.28-.2-.52-.47-.45-.4.11-.82.15-1.25.12-.18-.02-.35.09-.4.27-.71,2.34-2.41,4.51-4.6,4.64-1.4.08-3.49-.72-3.28-4.07.02-.27-.23-.49-.48-.41-.44.13-.91.2-1.39.16-.18-.02-.35.09-.4.27-.71,2.34-2.41,4.51-4.6,4.64-1.4.08-3.49-.72-3.28-4.07.02-.27-.23-.49-.48-.41-.44.13-.91.2-1.39.16-.18-.02-.35.09-.4.27-.71,2.34-2.41,4.51-4.6,4.64-1,.06-2.34-.33-2.96-1.77-.12-.28-.48-.32-.65-.08-.87,1.18-1.92,2.11-3.02,2.18-1.13.06-1.75-.39-2.01-1.2-.1-.29-.45-.35-.64-.13-.77.91-1.65,1.57-2.54,1.62-1.37.08-2.16-.94-2.22-2.16-.08-1.43.55-3.11,1.24-4.95.1-.25-.08-.53-.34-.54-.4-.02-.86-.06-1.28-.14-.19-.04-.38.08-.44.28-.82,2.92-2.07,5.79-3.13,7.49-.12.19-.36.24-.54.11l-.81-.59c-.17-.12-.21-.36-.1-.54,1.53-2.45,2.89-6.28,3.36-9.12.03-.18.18-.32.35-.33l1.07-.06c.25-.01.44.22.4.47v.03c-.04.23.11.44.32.47.96.13,2.4.15,3.38.11.27-.01.47.27.37.54-.78,2.09-1.84,4.98-1.77,6.12.03.52.26.8.66.78.77-.04,1.95-1.59,2.84-3.31.02-.03.03-.06.04-.1.3-1.35.75-2.85,1.2-4.36l.03-.09c.05-.16.18-.27.34-.28l1.29-.07c.27-.02.46.25.38.52-.07.22-.13.43-.2.65-1.13,3.71-2.08,6.83-.8,6.76.84-.05,2.02-1.47,3.04-3.49.02-.03.03-.07.04-.11.05-.26.11-.54.19-.83.6-2.38,1.27-4.73,1.95-7.09.21-.73.42-1.46.62-2.18.05-.16.18-.27.34-.28l1.32-.08c.27-.02.47.25.38.52-.53,1.66-1.08,3.42-1.6,5.12-.11.36.27.66.58.45.52-.36,1.12-.59,1.71-.63,1.49-.08,2.5,1.14,2.6,2.98,0,.1.01.2.01.31,0,.2.16.37.35.39.7.06,1.42-.15,1.97-.64.06-.05.1-.12.11-.19.55-2.13,1.15-4.24,1.76-6.35.21-.72.41-1.45.62-2.17.05-.16.18-.27.34-.28l1.32-.08c.27-.02.47.25.38.52-.53,1.66-1.08,3.42-1.6,5.12-.11.36.27.66.58.45.52-.36,1.12-.59,1.71-.63,1.49-.08,2.5,1.14,2.6,2.98,0,.1.01.2.01.31,0,.2.16.37.35.39.7.06,1.42-.15,1.97-.64.06-.05.1-.12.11-.19.55-2.13,1.15-4.24,1.76-6.35.21-.72.41-1.45.62-2.17.05-.16.18-.27.34-.28l1.32-.08c.27-.02.47.25.38.52-.53,1.66-1.08,3.42-1.6,5.12-.11.36.27.66.58.45.52-.36,1.12-.59,1.71-.63,1.49-.08,2.5,1.14,2.6,2.98,0,.1.01.2.01.31,0,.2.16.37.35.39.68.06,1.37-.13,1.91-.59.06-.05.1-.12.12-.2.62-2.4,1.54-5.56,2.42-8.57.05-.16.18-.27.34-.28l1.31-.08c.27-.02.46.25.38.51-1.22,4.04-2.21,7.57-2.75,9.65-.73,2.83-.75,3.64.07,3.59.69-.04,1.63-1.02,2.51-2.51.04-.06.05-.12.06-.19.12-2.98,1.94-5.69,4.66-5.84,1.82-.1,2.81,1.27,2.89,2.62.14,2.58-2.41,4.23-4.88,4.08-.29-.02-.5.29-.37.56.35.74,1.07,1.15,2.31,1.08,1.18-.07,2.42-1.09,3.2-1.99Zm-40.85.72c-.59,2.35.13,3.27,1.05,3.22,1.51-.09,2.97-2.86,2.86-4.99-.05-.93-.6-1.42-1.23-1.38-1.06.06-2.21,1.28-2.67,3.16Zm10.15-.58c-.59,2.35.13,3.27,1.05,3.22h0c1.51-.09,2.97-2.86,2.86-4.99-.05-.93-.6-1.42-1.23-1.38-1.06.06-2.21,1.28-2.67,3.16Zm10.15-.58c-.59,2.35.13,3.27,1.05,3.22h0c1.51-.09,2.97-2.86,2.86-4.99-.05-.93-.6-1.42-1.23-1.38-1.06.06-2.21,1.28-2.67,3.16Zm18.36-3.07c0-.62-.39-1.06-1-1.03h0c-1.21.07-2.15,1.38-2.45,2.96-.05.25.14.49.38.48,1.56-.04,3.12-1.07,3.07-2.41Zm-56.54,1.14c-.16-4.77-3.26-7.92-7.85-7.76-1.97.09-4.22.84-5.92,2.17-.16.13-.2.36-.09.53l.72,1.17c.12.2.38.24.56.09,1.29-1.07,3.05-1.77,4.75-1.85,3.14-.13,5.45,1.88,5.59,5.77.17,4.53-2.87,9.7-7.76,9.98-.17,0-.35.01-.53.01-.25,0-.43-.24-.37-.49.94-3.81,2.04-7.89,3.17-11.68.08-.26-.12-.53-.38-.51l-1.43.08c-.16,0-.3.12-.34.28-1.08,3.73-2.16,7.78-3.13,11.58-.06.22-.28.35-.49.27-.51-.17-.97-.37-1.36-.6-.19-.11-.43-.03-.52.17l-.61,1.28c-.09.19-.02.42.15.52,1.39.79,3.5,1.24,5.63,1.12,6.99-.4,10.41-6.86,10.23-12.14h0Zm13.73-5.86c-.85.05-1.6,1-1.55,2.01.03.66.46,1.11,1.12,1.07.85-.05,1.63-1.05,1.57-2.01-.03-.66-.53-1.1-1.15-1.07Z"/>
</svg>